# xmcd
#
# Track frame offsets:
#	150
#	81026
#	131237
#	157646
#	173140
#	211020
#	237024
#
# Disc length: 4690 seconds
#
# Revision: 2
# Processed by: cddbd v1.5.2PL0 Copyright (c) Steve Scherf et al.
# Submitted via: audiograbber 1.83.01
#
DISCID=49125007
DTITLE=Pink Floyd - The Early Years-1970 Deviation-Disc 1
DYEAR=2016
DGENRE=Rock
TTITLE0=Atom Heart Mother [Live In Montreaux, 1970]
TTITLE1=Embryo [Alternate Version]
TTITLE2=Fat Old Sun
TTITLE3=Green Is The Colour
TTITLE4=Careful With That Axe, Eugene
TTITLE5=If
TTITLE6=Atom Hearth Mother [With Choir, Cello and Brass Ensemble]
EXTD=
EXTT0=
EXTT1=
EXTT2=
EXTT3=
EXTT4=
EXTT5=
EXTT6=
PLAYORDER=
